<svg xmlns="http://www.w3.org/2000/svg" width="21" height="20" viewBox="0 0 21 20">
    <path fill="#BED2EE" fill-rule="evenodd" d="M7.55 5.444a1.322 1.322 0 0 0-1.794 0 1.155 1.155 0 0 0 0 1.696 1.322 1.322 0 0 0 1.793 0 1.155 1.155 0 0 0 0-1.696m8.462 11.818l-1.344-1.272h-2.133v-2.544h-2.69V11.43L8.73 10.376l-.559.177c-1.725.548-3.595.133-4.88-1.082-1.853-1.753-1.853-4.606 0-6.358 1.853-1.753 4.87-1.753 6.724 0 1.285 1.215 1.723 2.984 1.144 4.614l-.188.53 7.281 6.885v2.12h-2.24zm4.143-2.865l-7.026-6.645c.539-2.123-.113-4.345-1.769-5.911-2.595-2.455-6.817-2.455-9.413 0-2.595 2.454-2.595 6.448 0 8.902 1.594 1.507 3.83 2.134 5.998 1.725v2.777h2.688v2.543h3.247l1.345 1.272h4.93v-4.663z"/>
</svg>
